<svg width="25" height="25" viewBox="0 0 25 25" fill="none" xmlns="http://www.w3.org/2000/svg">
<path fill-rule="evenodd" clip-rule="evenodd" d="M1.53061 6.37755C1.53061 3.7051 3.7051 1.53061 6.37755 1.53061H18.6224C21.2949 1.53061 23.4694 3.7051 23.4694 6.37755V18.6224C23.4694 21.2949 21.2949 23.4694 18.6224 23.4694H6.37755C3.7051 23.4694 1.53061 21.2949 1.53061 18.6224V6.37755ZM6.37755 25H18.6224C22.1388 25 25 22.1388 25 18.6224V6.37755C25 2.86122 22.1388 0 18.6224 0H6.37755C2.86122 0 0 2.86122 0 6.37755V18.6224C0 22.1388 2.86122 25 6.37755 25ZM17.4745 11.7347C17.8267 11.7347 18.1122 12.0202 18.1122 12.3724C18.1122 12.7247 17.8267 13.0102 17.4745 13.0102H13.0102V17.4745C13.0102 17.8267 12.7247 18.1122 12.3724 18.1122C12.0202 18.1122 11.7347 17.8267 11.7347 17.4745V13.0102H7.52551C7.17329 13.0102 6.88775 12.7247 6.88775 12.3724C6.88775 12.0202 7.17329 11.7347 7.52551 11.7347H11.7347V7.52551C11.7347 7.17329 12.0202 6.88775 12.3724 6.88775C12.7247 6.88775 13.0102 7.17329 13.0102 7.52551V11.7347H17.4745Z" fill="black"/>
</svg>
